<?xml version="1.0" standalone="no"?><!DOCTYPE svg PUBLIC "-//W3C//DTD SVG 1.1//EN" "http://www.w3.org/Graphics/SVG/1.1/DTD/svg11.dtd"><svg t="1664355517892" class="icon" viewBox="0 0 1024 1024" version="1.1" xmlns="http://www.w3.org/2000/svg" p-id="2980" xmlns:xlink="http://www.w3.org/1999/xlink" width="60" height="60"><path d="M921.5 400.2c-22.2-53.1-54.1-100.9-94.8-142-41-40.6-88.7-72.5-141.8-94.6-55-23.6-113.8-34.5-172.9-35.2-60 0-118.1 11.8-172.7 35.2-53.1 22.2-100.9 54.1-142 94.8-40.6 40.9-72.5 88.7-94.7 141.8-23.6 55-35.4 113.2-35.3 172.9 0 61.2 12 120 35.8 174.7 23.3 54.4 56.7 102.8 99.3 144l4.1 3.9h611l4.1-3.9c42.5-41.2 75.9-89.6 99.2-143.9 23.7-54.6 35.8-113.4 35.8-174.7 0-60-11.8-118.2-35.1-173zM261.6 786.8C207.5 725.2 180 651.9 180 569.1c0-59.5 15-115.5 44.6-166.5 28.9-50.3 70.8-92.1 121.1-121.1 50.4-29.4 107.5-43.7 166.5-44.4 57.6-0.3 115.8 15 166.3 44.5 50.3 29 92.1 70.8 121.1 121.1 29.5 50.4 44.9 107.9 44.5 166.4 0 82.8-27.4 156-81.5 217.6h-501z" p-id="2981"></path><path d="M298.4 546.8L234.3 535l6.3-35.7 64.1 11.8zM719.4 511.1l64.1-11.9 6.4 35.6-64.2 12zM360.1 409l-41.9-49.8 27.7-22.9 41.9 49.8-27.7 23zM664 409l-27.7-22.9 42-49.9 27.7 22.9-41.9 50zM493.9 282.4h36.4v64.9h-36.4v-65zM513.6 562.6L404.4 440.7l60.9 148.8c-10.5 19-10.2 37.7 0.8 56.2 7.9 12.7 19.2 20.7 34 24.2 14.7 3.4 28.5 1 41.2-7.1 12.3-7.7 21-20 24.1-34.1 3.4-14.5 1.2-28.1-6.7-40.8-9.5-15.8-26.6-25.4-45.1-25.3z" p-id="2982"></path></svg>